<?xml version="1.0" encoding="utf-8"?>
<!-- Generator: Adobe Illustrator 16.0.0, SVG Export Plug-In . SVG Version: 6.00 Build 0)  -->
<!DOCTYPE svg PUBLIC "-//W3C//DTD SVG 1.1//EN" "http://www.w3.org/Graphics/SVG/1.1/DTD/svg11.dtd">
<svg version="1.1" id="Layer_1" xmlns="http://www.w3.org/2000/svg" xmlns:xlink="http://www.w3.org/1999/xlink" x="0px" y="0px"
	 width="1000px" height="554.344px" viewBox="0 0 1000 554.344" enable-background="new 0 0 1000 554.344" xml:space="preserve">
<g>
	<path d="M976.299,471.662c0.016,0.289,0.079,0.844,0.345,1.336c0.747,1.426,2.573,1.691,3.541,1.691
		c1.81,0,3.261-0.771,3.261-2.246c0-1.537-1.311-1.865-3.979-2.512c-1.717-0.406-4.306-1.016-4.306-3.637
		c0-2.043,1.7-3.65,4.617-3.65c2.825,0,4.853,1.365,4.946,3.947l-1.67,0.141c-0.093-0.951-0.483-2.527-3.197-2.527
		c-1.156,0-3.043,0.342-3.043,1.965c0,1.139,0.733,1.576,3.136,2.1c2.419,0.537,5.181,1.162,5.181,4.064
		c0,2.17-1.888,3.924-4.885,3.924c-3.166,0-4.586-1.225-5.273-2.83c-0.296-0.719-0.312-1.266-0.327-1.625L976.299,471.662"/>
	<path fill="#1D59A8" d="M633.532,99.66c-21.266-15.458-58.589-11.608-79.871,0.968c-42.035,23.678-68.618,67.646-72.956,111.627
		c12.076-31.419,41.063-65.25,73.939-75.396c27.398-9.124,55.967-1.058,71.772,19.043c39.319,46.728,3.62,114.343,3.62,114.343
		c27.54-25.613,44.094-63.853,41.677-104.938l98.579,170.378H605.321c43.486-22.211,69.168-68.338,72.555-113.275
		c-15.478,38.657-54.143,79.244-98.595,78.761c-23.67,0-45.406-12.078-57.029-33.344c-16.909-29.958-8.208-71.517,5.805-100.02
		c-30.938,28.015-45.908,71.024-40.596,115.965c4.837,19.34,14.137,40.818,32.965,51.912H382.648L576.315,0L633.532,99.66"/>
	<path d="M493.063,354.375c-21.056-47.012-49.453-77.11-72.874-95.537c17.218-2.36,37.136-9.214,64.495-24.622l8.972-5.059
		l-4.126-9.424l-21.853-49.891l-5.203-11.862l-11.095,6.662c-0.249,0.145-23.271,12.038-49.867,9.105
		c28.702-7.564,49.93-33.753,49.93-64.819c0-36.948-30.066-67.042-67.03-67.042c-36.947,0-67.038,30.094-67.038,67.042
		c0,15.169,5.086,29.197,13.63,40.455c-35.95,24.957-46.265,65.809-49.33,102.079c-0.757,8.804-1.567,12.167-1.794,13.021
		c-22.765,47.35-72.499,54.193-74.598,54.459l-14.191,1.809c-0.047,0.008,4.899,13.434,4.899,13.434l23.42,63.723l3.409,9.285
		l9.674-2.076c71.774-15.445,97.848-48.557,118.162-75.846c50.812,25.652,69.262,66.156,69.262,66.156
		c1.389,2.551,5.539,10.299,5.539,10.299l10.188-5.928l52.77-30.941l8.831-5.158L493.063,354.375"/>
	<path fill="#F7CD83" d="M384.411,65.907c23.725,0,43.025,19.309,43.025,43.021c0,23.717-19.301,43.025-43.025,43.025
		c-23.716,0-43.002-19.309-43.002-43.025C341.409,85.215,360.695,65.907,384.411,65.907"/>
	<path fill="#F7CD83" d="M434.856,373.832c-9.464-16.834-32.432-46.918-82.915-69.051l0.008,0.031
		c-1.514-1.031-3.339-1.639-5.306-1.639c-3.003,0-5.664,1.389-7.396,3.564l-0.117-0.061l-5.273,7.006
		c-18.232,24.541-38.813,52.176-96.544,66.889l-15.446-41.988c20.369-5.727,58.035-21.711,78.451-64.081
		c1.482-2.788,2.934-8.023,4.049-21.123c4.011-47.191,16.485-72.444,43.962-87.997c6.951,4.458,14.753,7.653,23.108,9.307
		c0.093,0.951,0.163,1.974,0.249,2.75c0.242,3.394,0.531,6.909,1.756,10.079l1.888,5.033l5.126,1.712
		c28.639,9.599,56.14,1.724,71.087-4.466l12.919,29.494c-41.761,21.793-60.102,18.7-81.892,15.388c0,0-5.11-0.842-7.014-0.842
		c-6.28,0-9.947,4.708-10.806,10.93c-1.006,7.196,4.931,9.916,4.931,9.916c2.466,2.164,60.688,24.15,98.237,99.785L434.856,373.832"
		/>
	<path d="M63.294,529.691L39.936,463.16H22.48L0,529.691h15.283l4.041-12.313H42.3l4.127,12.313H63.294 M38.446,505.248H23.062
		l4.345-12.521c1.374-4.025,2.474-8.176,3.16-11.818h0.188c0.686,3.924,1.786,7.285,3.058,11.039L38.446,505.248z"/>
	<path d="M127.468,495.395c0-23.357-13.121-33.514-30.659-33.514c-18.139,0-33.016,13.699-33.016,35.379
		c0,20.9,10.056,33.727,30.651,33.727C112.872,530.986,127.468,517.27,127.468,495.395 M111.194,496.379
		c0,15.086-8.573,20.5-15.859,20.5c-10.549,0-15.292-8.082-15.292-20.891c0-13.904,7.592-20.113,15.58-20.113
		C105.78,475.875,111.194,482.975,111.194,496.379z"/>
	<polyline points="136.144,529.691 136.144,463.16 151.521,463.16 151.521,516.1 171.633,516.1 171.633,529.691 136.144,529.691 	
		"/>
	<polyline points="209.299,529.691 196.676,529.691 209.299,463.16 221.913,463.16 209.299,529.691 	"/>
	<path d="M264.486,529.691h-12.42l5.921-30.746c1.179-6.008,0.203-8.48-2.957-8.48c-6.6,0-15.47,15.385-17.654,26.805l-2.363,12.422
		h-12.319l4.938-25.621c0.874-4.533,3.534-18.926,4.229-23.373h12.132c-0.601,2.957-1.764,7.496-4.432,15.189l0.188,0.102
		c4.439-8.777,11.234-16.359,20.604-16.359c9.471,0,12.318,6.701,10.556,16.258L264.486,529.691"/>
	<path d="M308.658,490.059c-2.16-0.686-4.446-0.967-6.615-0.967c-5.126,0-7.575,2.059-7.575,5.227
		c0,6.008,12.716,8.871,12.716,19.707c0,8.176-7.1,16.648-22.375,16.648c-3.26,0-6.124-0.281-8.581-0.672l2.263-10.656
		c2.263,0.795,5.04,1.373,7.489,1.373c5.032,0,8.192-1.949,8.192-5.516c0-6.6-12.623-8.076-12.623-19.613
		c0-8.963,6.997-15.877,21.095-15.877c3.159,0,5.82,0.205,8.277,0.703L308.658,490.059"/>
	<path d="M348.485,490.465h-11.539l-4.127,22.094c-1.084,5.896-0.312,7.473,3.737,7.473c2.466,0,4.33-0.281,6.102-0.686
		l-1.171,10.064c-3.262,0.779-6.998,1.264-10.057,1.264c-10.547,0-13.512-5.01-11.241-16.75l4.438-23.459h-8.386l1.981-9.768h8.276
		l2.856-15.074l12.825-2.557l-3.354,17.631h11.632L348.485,490.465"/>
	<path d="M400.436,481.299c-5.523-1.094-11.43-1.477-17.351-1.477c-21.493,0-31.448,17.148-31.448,35.686
		c0,10.453,4.041,15.275,11.531,15.275c9.759,0,16.57-9.457,20.518-16.664h0.188c-2.271,6.811-3.744,11.74-4.635,15.572h12.226
		C393.531,516.787,396.105,504.07,400.436,481.299 M386.424,490.371l-0.585,3.15c-1.966,10.354-10.735,26.418-17.733,26.418
		c-2.464,0-3.744-1.967-3.744-6.805c0-10.25,5.211-23.465,16.547-23.465C383.085,489.67,384.848,489.965,386.424,490.371z"/>
	<path d="M446.362,529.691h-12.411l5.913-30.746c1.187-6.008,0.195-8.48-2.949-8.48c-6.607,0-15.485,15.385-17.654,26.805
		l-2.364,12.422h-12.318l4.923-25.621c0.89-4.533,3.558-18.926,4.236-23.373h12.131c-0.593,2.957-1.778,7.496-4.438,15.189
		l0.21,0.102c4.432-8.777,11.227-16.359,20.597-16.359c9.455,0,12.326,6.701,10.54,16.258L446.362,529.691"/>
	<path d="M492.704,490.465h-11.53l-4.151,22.094c-1.068,5.896-0.289,7.473,3.753,7.473c2.465,0,4.338-0.281,6.124-0.686
		l-1.201,10.064c-3.254,0.779-6.991,1.264-10.041,1.264c-10.563,0-13.52-5.01-11.25-16.75l4.439-23.459h-8.379l1.966-9.768h8.285
		l2.872-15.074l12.802-2.557l-3.348,17.631h11.633L492.704,490.465"/>
	<path d="M593.839,529.691h-13.497l1.576-31.535c0.297-6.305,0.593-11.438,1.076-16.072h-0.187
		c-1.592,4.246-3.651,8.973-6.211,14.193l-16.756,33.414H547.42l-3.932-30.84c-0.703-5.439-1.203-11.834-1.108-16.768h-0.095
		c-1.465,5.82-3.057,11.143-4.931,16.961l-9.548,30.646h-13.122l22.67-66.531h14.698l4.447,34.201
		c0.579,4.727,0.874,9.27,0.874,13.996h0.202c1.967-5.117,3.636-8.77,6.211-13.801l17.646-34.396h14.683L593.839,529.691"/>
	<path d="M647.575,491.643c0-5.906-3.745-11.93-15.868-11.93c-15.275,0-27.712,13.91-27.712,34.406
		c0,10.859,4.931,16.555,17.367,16.555c6.49,0,12.904-1.061,18.334-3.145v-9.65c-4.542,1.871-9.581,2.941-14.294,2.941
		c-6.817,0-8.971-1.67-8.971-7.287c0-1.084,0.187-2.77,0.297-3.846C635.936,509.094,647.575,503.383,647.575,491.643
		 M635.358,493.336c0,5.219-5.93,7.574-17.258,7.973c1.765-6.412,5.805-12.311,12.219-12.311
		C633.47,488.998,635.358,490.566,635.358,493.336z"/>
	<path d="M681.979,490.059c-2.169-0.686-4.446-0.967-6.615-0.967c-5.104,0-7.583,2.059-7.583,5.227
		c0,6.008,12.716,8.871,12.716,19.707c0,8.176-7.098,16.648-22.373,16.648c-3.247,0-6.103-0.281-8.582-0.672l2.277-10.656
		c2.246,0.795,5.023,1.373,7.49,1.373c5.023,0,8.176-1.949,8.176-5.516c0-6.6-12.608-8.076-12.608-19.613
		c0-8.963,6.99-15.877,21.096-15.877c3.152,0,5.805,0.205,8.285,0.703L681.979,490.059"/>
	<path d="M719.13,490.059c-2.153-0.686-4.431-0.967-6.584-0.967c-5.133,0-7.599,2.059-7.599,5.227
		c0,6.008,12.716,8.871,12.716,19.707c0,8.176-7.1,16.648-22.375,16.648c-3.259,0-6.116-0.281-8.58-0.672l2.277-10.656
		c2.263,0.795,5.024,1.373,7.475,1.373c5.039,0,8.191-1.949,8.191-5.516c0-6.6-12.622-8.076-12.622-19.613
		c0-8.963,7.004-15.877,21.094-15.877c3.168,0,5.82,0.205,8.285,0.703L719.13,490.059"/>
	<path d="M769.716,491.643c0-5.906-3.745-11.93-15.868-11.93c-15.275,0-27.711,13.91-27.711,34.406
		c0,10.859,4.93,16.555,17.366,16.555c6.491,0,12.902-1.061,18.333-3.145v-9.65c-4.54,1.871-9.564,2.941-14.292,2.941
		c-6.818,0-8.972-1.67-8.972-7.287c0-1.084,0.187-2.77,0.296-3.846C758.075,509.094,769.716,503.383,769.716,491.643
		 M757.498,493.336c0,5.219-5.914,7.574-17.256,7.973c1.762-6.412,5.805-12.311,12.231-12.311
		C755.61,488.998,757.498,490.566,757.498,493.336z"/>
	<path d="M815.074,529.691h-12.437l5.914-30.746c1.201-6.008,0.202-8.48-2.966-8.48c-6.6,0-15.462,15.385-17.631,26.805
		l-2.371,12.422h-12.327l4.946-25.621c0.874-4.533,3.543-18.926,4.244-23.373h12.107c-0.593,2.957-1.762,7.496-4.431,15.189
		l0.187,0.102c4.447-8.777,11.235-16.359,20.612-16.359c9.471,0,12.312,6.701,10.547,16.258L815.074,529.691"/>
	<path d="M877.656,481.299c-5.507-1.094-11.437-1.477-17.333-1.477c-21.502,0-31.473,17.148-31.473,35.686
		c0,10.453,4.057,15.275,11.563,15.275c9.752,0,16.54-9.457,20.392-16.463l0.204,0.111c-2.777,7.676-3.947,11.232-5.039,16.85
		c-1.686,8.77-6.99,12.326-16.259,12.326c-4.54,0-9.565-0.998-13.513-2.869l-2.871,11.529c3.854,1.287,8.691,2.076,14.199,2.076
		c19.129,0,27.711-8.084,30.269-21.58L877.656,481.299 M863.662,490.371l-0.593,3.15c-1.967,10.354-10.735,26.418-17.742,26.418
		c-2.464,0-3.745-1.967-3.745-6.805c0-10.25,5.213-23.465,16.557-23.465C860.323,489.67,862.086,489.965,863.662,490.371z"/>
	<path d="M925.762,491.643c0-5.906-3.744-11.93-15.869-11.93c-15.275,0-27.71,13.91-27.71,34.406
		c0,10.859,4.931,16.555,17.365,16.555c6.506,0,12.903-1.061,18.334-3.145v-9.65c-4.54,1.871-9.565,2.941-14.308,2.941
		c-6.788,0-8.957-1.67-8.957-7.287c0-1.084,0.204-2.77,0.297-3.846C914.137,509.094,925.762,503.383,925.762,491.643
		 M913.544,493.336c0,5.219-5.914,7.574-17.242,7.973c1.765-6.412,5.805-12.311,12.219-12.311
		C911.673,488.998,913.544,490.566,913.544,493.336z"/>
	<path d="M962.725,491.852c-7.177-2.277-15.962,10.643-19.021,27.197l-2.06,10.643h-12.325l4.93-25.621
		c0.875-4.533,3.541-18.926,4.229-23.373h11.921c-0.688,3.76-1.858,8.098-4.229,14.791h0.202
		c5.229-10.344,10.548-17.146,19.021-15.775L962.725,491.852"/>
	<path d="M987.486,462.861h2.606l3.121,9.316c0.436,1.311,0.499,1.576,0.608,1.967h0.029c0.221-0.717,0.282-0.875,0.702-2.107
		l3.139-9.176H1000v13.17h-1.653v-11.016h-0.032l-3.774,11.016h-1.576l-3.761-11.203h-0.063v11.203h-1.653V462.861"/>
</g>
</svg>
