<?xml version="1.0" ?><svg height="60px" version="1.1" viewBox="0 0 60 60" width="60px" xmlns="http://www.w3.org/2000/svg" xmlns:xlink="http://www.w3.org/1999/xlink"><title/><desc/><defs/><g fill="none" fill-rule="evenodd" id="Page-1" stroke="none" stroke-width="1"><g id="Social_icons" transform="translate(-722.000000, -352.000000)"><g id="Aim" transform="translate(722.000000, 352.000000)"><path d="M0,30 C0,13.4314567 13.4314567,0 30,0 C46.5685433,0 60,13.4314567 60,30 C60,46.5685433 46.5685433,60 30,60 C13.4314567,60 0,46.5685433 0,30 Z" fill="#FFD900" id="back"/><path d="M33.0769444,11 C30.3119444,11 28,13.2306368 28,15.9833126 C28,18.7352098 30.3119444,20.9662359 33.0769444,20.9662359 C35.84,20.9662359 38.1881111,18.7352098 38.1881111,15.9833126 C38.1881111,13.2306368 35.84,11 33.0769444,11" fill="#FFFFFF" id="2"/><path d="M42.4098889,28.6969711 C42.4098889,28.6969711 41.2517778,26.5508104 39.7872222,24.3295166 C37.3986667,26.4667236 34.9241667,26.1089653 33.8726111,25.8812301 C32.4862222,25.5818654 32.1097778,24.9955933 32.2245,24.4801722 C31.4163889,24.2267438 28.5759444,22.5555181 26.8586111,22 C23.555,23.999398 22.232,28.9963357 22.3906667,34.0781389 C20.1747778,38.2653517 18.5255,39.6765311 14,40.7116556 C14.8512778,42.6985962 15.1954444,43.4429204 16.4562222,46.0764732 C22.1153333,44.5523994 25.7331667,41.2523806 27.9560556,38.4261288 C31.7422778,39.3841737 34.5115556,41.777534 36.7978333,46.1200738 C39.1716111,44.1510405 39.4345,43.9493878 41.4543889,42.33422 C39.879,38.5841809 36.0130556,35.3406093 32.3310556,33.5743965 C32.3656667,32.6872026 32.3925,32.4656961 32.4290556,31.769644 C37.8392778,33.1757627 42.4098889,28.6969711 42.4098889,28.6969711" fill="#FFFFFF" id="1"/></g></g></g></svg>